<svg xmlns="http://www.w3.org/2000/svg" xmlns:xlink="http://www.w3.org/1999/xlink" width="128" height="128" viewBox="0 0 128 128"><defs><path id="vtm4a" d="M622 2657v-32h25l-4 9 4 8h-25"/><path id="vtm4b" d="M614 2639l-13-5-30 9s-9 2.8-9 11v78s2 10 9 8 29-9 29-9l48 18 31-9s7-2.72 7-9v-82s-2-8-10-6-28 8-28 8v98"/><path id="vtm4c" d="M601 2634v98"/><path id="vtm4d" d="M568 2694l9 6"/><path id="vtm4e" d="M583 2702s6 1 10-1"/><path id="vtm4f" d="M608 2692s-2 4-6 6"/><path id="vtm4g" d="M617 2678s-2 6-5 9"/><path id="vtm4h" d="M622 2661s-2 9-3 11"/><path id="vtm4i" d="M608 2716l9.5-9.5 9.5 9.5"/><path id="vtm4j" d="M640 2712l-9.5-9.5-8.5 8.5"/><path id="vtm4k" d="M679 2682l-6-6-6 6"/><path id="vtm4l" d="M670 2691l-6-6-6 6"/><path id="vtm4m" d="M666 2716l-6-6-6 6"/><path id="vtm4n" d="M648 2651l-12-4"/></defs><g><g transform="translate(-560 -2623)"><g><g><use fill="#fff" fill-opacity="0" stroke="#f26722" stroke-miterlimit="50" stroke-width="2" xlink:href="#vtm4a"/></g><g><use fill="#fff" fill-opacity="0" stroke="#939598" stroke-miterlimit="50" stroke-width="2" xlink:href="#vtm4b"/></g><g><use fill="#fff" fill-opacity="0" stroke="#939598" stroke-miterlimit="50" stroke-width="2" xlink:href="#vtm4c"/></g><g><use fill="#fff" fill-opacity="0" stroke="#f26722" stroke-miterlimit="50" stroke-width="2" xlink:href="#vtm4d"/></g><g><use fill="#fff" fill-opacity="0" stroke="#f26722" stroke-miterlimit="50" stroke-width="2" xlink:href="#vtm4e"/></g><g><use fill="#fff" fill-opacity="0" stroke="#939598" stroke-miterlimit="50" stroke-width="2" xlink:href="#vtm4f"/></g><g><use fill="#fff" fill-opacity="0" stroke="#f26722" stroke-miterlimit="50" stroke-width="2" xlink:href="#vtm4g"/></g><g><use fill="#fff" fill-opacity="0" stroke="#f26722" stroke-miterlimit="50" stroke-width="2" xlink:href="#vtm4h"/></g><g><use fill="#fff" fill-opacity="0" stroke="#f26722" stroke-miterlimit="50" stroke-width="2" xlink:href="#vtm4i"/></g><g><use fill="#fff" fill-opacity="0" stroke="#f26722" stroke-miterlimit="50" stroke-width="2" xlink:href="#vtm4j"/></g><g><use fill="#fff" fill-opacity="0" stroke="#939598" stroke-miterlimit="50" stroke-width="2" xlink:href="#vtm4k"/></g><g><use fill="#fff" fill-opacity="0" stroke="#939598" stroke-miterlimit="50" stroke-width="2" xlink:href="#vtm4l"/></g><g><use fill="#fff" fill-opacity="0" stroke="#939598" stroke-miterlimit="50" stroke-width="2" xlink:href="#vtm4m"/></g></g><g><use fill="#fff" fill-opacity="0" stroke="#939598" stroke-miterlimit="50" stroke-width="2" xlink:href="#vtm4n"/></g></g></g></svg>