<svg xmlns="http://www.w3.org/2000/svg" xmlns:xlink="http://www.w3.org/1999/xlink" width="129" height="121" viewBox="0 0 129 121"><defs><path id="wqdua" d="M584 2985v-104h104v104z"/><path id="wqduc" d="M673.25 2973h-67.5a2.77 2.77 0 0 1-2.75-2.78v-67.52c0-3.15 2.53-5.7 5.66-5.7h61.68a5.68 5.68 0 0 1 5.66 5.7v67.52a2.77 2.77 0 0 1-2.75 2.78z"/><path id="wqdud" d="M603 2927h-8.34c-1.47 0-2.66-1.1-2.66-2.44v-15.12c0-1.35 1.19-2.44 2.66-2.44H603z"/><path id="wqdue" d="M684.34 2927H676v-20h8.34c1.47 0 2.66 1.1 2.66 2.44v15.12c0 1.35-1.19 2.44-2.66 2.44z"/><path id="wqduf" d="M618.44 2984h-7.88c-1.42 0-2.56-1.22-2.56-2.73V2973h13v8.27c0 1.51-1.14 2.73-2.56 2.73z"/><path id="wqdug" d="M667.44 2984h-7.88c-1.42 0-2.56-1.22-2.56-2.73V2973h13v8.27c0 1.51-1.14 2.73-2.56 2.73z"/><path id="wqduh" d="M669.68 2932h-60.36c-.73 0-1.32-.59-1.32-1.31v-26.02c0-1.47 1.2-2.67 2.68-2.67h57.64c1.48 0 2.68 1.2 2.68 2.67v26.02c0 .72-.59 1.31-1.32 1.31z"/><path id="wqdui" d="M613 2943h54"/><path id="wqduj" d="M613 2948h54"/><path id="wqduk" d="M613 2953h54"/><path id="wqdul" d="M608 2969h15v-11h-15z"/><path id="wqdum" d="M656 2969h15v-11h-15z"/><path id="wqdun" d="M631 2965h18v-5h-18z"/><path id="wqduo" d="M603 2894v-12h73v12"/><path id="wqdup" d="M642 2927h25"/><path id="wqduq" d="M662 2932l-10-5"/><path id="wqdur" d="M560 2976.44V2914h75v62.44"/><path id="wqdus" d="M566 3001h15v-9h-15z"/><path id="wqdut" d="M614 3001h15v-9h-15z"/><path id="wqduu" d="M629.32 2992h-63.64l-1.68-5.38v-17.42c0-2.75.9-5.42 2.54-7.6l2.66-3.53 4.27-19.2a2.22 2.22 0 0 1 2.04-1.74l22.87-.07 21.1.07c1 .06 1.83.77 2.05 1.74l4.27 19.2 2.66 3.52a12.63 12.63 0 0 1 2.54 7.6v17.43z"/><path id="wqduv" d="M569 2958h57"/><path id="wqduw" d="M606.4 2981h-18.8a2.88 2.88 0 0 1-2.82-2.44l-.76-4.57c-.17-1.04.6-1.99 1.63-1.99h22.7c1.02 0 1.8.95 1.63 2l-.76 4.56a2.88 2.88 0 0 1-2.82 2.44z"/><path id="wqdux" d="M580 2981l-.6-3.18a4.62 4.62 0 0 0-3.7-3.74L564 2972l.08 8.92z"/><path id="wqduy" d="M569 2972.83v8.17h-5v-9z"/><path id="wqduz" d="M615 2981l.6-3.18a4.62 4.62 0 0 1 3.7-3.74L631 2972l-.08 8.92z"/><path id="wqduA" d="M626 2972.83v8.17h5v-9z"/><path id="wqduB" d="M573 2981h48"/><clipPath id="wqdub"><use xlink:href="#wqdua"/></clipPath></defs><g><g transform="translate(-559 -2881)"><g><g/><g clip-path="url(#wqdub)"><g><use fill="#fff" fill-opacity="1" stroke="#939598" stroke-linecap="round" stroke-linejoin="round" stroke-miterlimit="50" stroke-width="2" xlink:href="#wqduc"/></g><g><use fill="#fff" fill-opacity="1" stroke="#939598" stroke-linecap="round" stroke-linejoin="round" stroke-miterlimit="50" stroke-width="2" xlink:href="#wqdud"/></g><g><use fill="#fff" fill-opacity="1" stroke="#939598" stroke-linecap="round" stroke-linejoin="round" stroke-miterlimit="50" stroke-width="2" xlink:href="#wqdue"/></g><g><use fill="#fff" fill-opacity="1" stroke="#939598" stroke-linecap="round" stroke-linejoin="round" stroke-miterlimit="50" stroke-width="2" xlink:href="#wqduf"/></g><g><use fill="#fff" fill-opacity="1" stroke="#939598" stroke-linecap="round" stroke-linejoin="round" stroke-miterlimit="50" stroke-width="2" xlink:href="#wqdug"/></g><g><use fill="#fff" fill-opacity="1" stroke="#939598" stroke-linecap="round" stroke-linejoin="round" stroke-miterlimit="50" stroke-width="2" xlink:href="#wqduh"/></g><g><use fill="#fff" fill-opacity="1" stroke="#939598" stroke-linecap="round" stroke-linejoin="round" stroke-miterlimit="50" stroke-width="2" xlink:href="#wqdui"/></g><g><use fill="#fff" fill-opacity="1" stroke="#939598" stroke-linecap="round" stroke-linejoin="round" stroke-miterlimit="50" stroke-width="2" xlink:href="#wqduj"/></g><g><use fill="#fff" fill-opacity="1" stroke="#939598" stroke-linecap="round" stroke-linejoin="round" stroke-miterlimit="50" stroke-width="2" xlink:href="#wqduk"/></g><g><use fill="#fff" fill-opacity="1" stroke="#939598" stroke-linecap="round" stroke-linejoin="round" stroke-miterlimit="50" stroke-width="2" xlink:href="#wqdul"/></g><g><use fill="#fff" fill-opacity="1" stroke="#939598" stroke-linecap="round" stroke-linejoin="round" stroke-miterlimit="50" stroke-width="2" xlink:href="#wqdum"/></g><g><use fill="#fff" fill-opacity="1" stroke="#939598" stroke-linecap="round" stroke-linejoin="round" stroke-miterlimit="50" stroke-width="2" xlink:href="#wqdun"/></g><g><use fill="#fff" fill-opacity="1" stroke="#f26722" stroke-linecap="round" stroke-linejoin="round" stroke-miterlimit="50" stroke-width="2" xlink:href="#wqduo"/></g><g><use fill="#fff" fill-opacity="1" stroke="#939598" stroke-linecap="round" stroke-linejoin="round" stroke-miterlimit="50" stroke-width="2" xlink:href="#wqdup"/></g><g><use fill="#fff" fill-opacity="1" stroke="#939598" stroke-linecap="round" stroke-linejoin="round" stroke-miterlimit="50" stroke-width="2" xlink:href="#wqduq"/></g></g></g><g><g><use fill="#fff" fill-opacity="1" stroke="#f26722" stroke-miterlimit="50" stroke-width="2" xlink:href="#wqdur"/></g><g><use fill="#fff" fill-opacity="1" stroke="#939598" stroke-miterlimit="50" stroke-width="2" xlink:href="#wqdus"/></g><g><use fill="#fff" fill-opacity="1" stroke="#939598" stroke-miterlimit="50" stroke-width="2" xlink:href="#wqdut"/></g><g><use fill="#fff" fill-opacity="1" stroke="#939598" stroke-miterlimit="50" stroke-width="2" xlink:href="#wqduu"/></g><g><use fill="#fff" fill-opacity="1" stroke="#939598" stroke-miterlimit="50" stroke-width="2" xlink:href="#wqduv"/></g><g><use fill="#fff" fill-opacity="1" stroke="#939598" stroke-miterlimit="50" stroke-width="2" xlink:href="#wqduw"/></g><g><use fill="#fff" fill-opacity="1" stroke="#939598" stroke-miterlimit="50" stroke-width="2" xlink:href="#wqdux"/></g><g><use fill="#fff" fill-opacity="1" stroke="#939598" stroke-miterlimit="50" stroke-width="2" xlink:href="#wqduy"/></g><g><use fill="#fff" fill-opacity="1" stroke="#939598" stroke-miterlimit="50" stroke-width="2" xlink:href="#wqduz"/></g><g><use fill="#fff" fill-opacity="1" stroke="#939598" stroke-miterlimit="50" stroke-width="2" xlink:href="#wqduA"/></g><g><use fill="#fff" fill-opacity="1" stroke="#939598" stroke-miterlimit="50" stroke-width="2" xlink:href="#wqduB"/></g></g></g></g></svg>