<svg xmlns="http://www.w3.org/2000/svg" xmlns:xlink="http://www.w3.org/1999/xlink" width="140" height="141" viewBox="0 0 140 141"><defs><path id="wtiwa" d="M1086 1066v-29"/><path id="wtiwb" d="M1087 1075.28V1085h-50v-48h10.26"/><path id="wtiwc" d="M1065 1038v10h-7v-10"/><path id="wtiwd" d="M1046 1037h50v-47h-50z"/><path id="wtiwe" d="M1068 1000h7v-10h-7z"/><path id="wtiwf" d="M1135 1003v15h40v-39h-40v14"/><path id="wtiwg" d="M1120 1035l-6 21-23 24-9-8 4-4 17-17 6-27"/><path id="wtiwh" d="M1127 998l3 23 17 19 5 40h-12l-4-35c-1.9-1.74-9.27-5.89-16-11-4.3-3.05-8.32-6.54-11-10 .38 0 0 0 0 0v-1l-2-13 4-1v4l11-2s-1.85-13.9-2-14c.12-.21.11-.3 0 0 .02-1.23-.05-2.56 0-4"/><path id="wtiwi" d="M1140 1084h22"/><path id="wtiwj" d="M1079 1074l11 11h10"/><path id="wtiwk" d="M1151 989h7v-10h-7z"/><path id="wtiwl" d="M1158 998a6.5 6.5 0 0 0-4 2c-.07.2-17-4-17-4l-2 8s19.02 2.14 19 2c.94 1.27 2.37 2 4 2 2.75 0 5-2.19 5-5 0-2.58-2.25-4.77-5-5z"/><path id="wtiwm" d="M1137 996c-.6-.4-15.6-13.89-16-14-2.77-4.21-5.33-5.53-10-5-5.63.9-6.1 5.84-6 9 .3 7.4.6 10.88 1 16 .57 2.99 1.17 8 1 8"/><path id="wtiwn" d="M1120 993l14 10"/><path id="wtiwo" d="M1113.18 987.92l7.34 5.41"/><path id="wtiwp" d="M1111 1009s-1.91-21.2-2-21c.09-.2-1.32-12.54 7-11"/><path id="wtiwq" d="M1127 959c-.12.94 0 1.89 0 3 0 6-5.14 11-12 11-5.86 0-11-5-11-11 0-.52.02-.89 0-1 .05-.24.05-.27 0 0 .1-.85.2-1.43 0-2"/><path id="wtiwr" d="M1104 959h33"/><path id="wtiws" d="M1104 959c0 .08 0 .16 0 0 0 .62.02 1.17 0 2 .05-.2.05-.18 0 0 .15 1.62.38 4.07 1 5 4.86-1.39 7.6-4.11 9-7"/><path id="wtiwt" d="M1127 953c0-3.66-3.2-7-7-7h-9c-3.8 0-7 3.34-7 7v6h23v-6z"/></defs><g><g transform="translate(-1036 -945)"><g><use fill="#fff" fill-opacity="0" stroke="#939598" stroke-linecap="round" stroke-linejoin="round" stroke-miterlimit="50" stroke-width="2" xlink:href="#wtiwa"/></g><g><use fill="#fff" fill-opacity="0" stroke="#939598" stroke-linecap="round" stroke-linejoin="round" stroke-miterlimit="50" stroke-width="2" xlink:href="#wtiwb"/></g><g><use fill="#fff" fill-opacity="0" stroke="#f26722" stroke-miterlimit="50" stroke-width="2" xlink:href="#wtiwc"/></g><g><use fill="#fff" fill-opacity="0" stroke="#939598" stroke-linecap="round" stroke-linejoin="round" stroke-miterlimit="50" stroke-width="2" xlink:href="#wtiwd"/></g><g><use fill="#fff" fill-opacity="0" stroke="#f26722" stroke-miterlimit="50" stroke-width="2" xlink:href="#wtiwe"/></g><g><use fill="#fff" fill-opacity="0" stroke="#939598" stroke-linecap="round" stroke-linejoin="round" stroke-miterlimit="50" stroke-width="2" xlink:href="#wtiwf"/></g><g><use fill="#fff" fill-opacity="0" stroke="#939598" stroke-linecap="round" stroke-linejoin="round" stroke-miterlimit="50" stroke-width="2" xlink:href="#wtiwg"/></g><g><use fill="#fff" fill-opacity="0" stroke="#939598" stroke-linecap="round" stroke-linejoin="round" stroke-miterlimit="50" stroke-width="2" xlink:href="#wtiwh"/></g><g><use fill="#fff" fill-opacity="0" stroke="#939598" stroke-linecap="round" stroke-linejoin="round" stroke-miterlimit="50" stroke-width="2" xlink:href="#wtiwi"/></g><g><use fill="#fff" fill-opacity="0" stroke="#939598" stroke-linecap="round" stroke-linejoin="round" stroke-miterlimit="50" stroke-width="2" xlink:href="#wtiwj"/></g><g><use fill="#fff" fill-opacity="0" stroke="#f26722" stroke-miterlimit="50" stroke-width="2" xlink:href="#wtiwk"/></g><g><use fill="#fff" fill-opacity="0" stroke="#939598" stroke-linecap="round" stroke-linejoin="round" stroke-miterlimit="50" stroke-width="2" xlink:href="#wtiwl"/></g><g><use fill="#fff" fill-opacity="0" stroke="#939598" stroke-linecap="round" stroke-linejoin="round" stroke-miterlimit="50" stroke-width="2" xlink:href="#wtiwm"/></g><g><use fill="#fff" fill-opacity="0" stroke="#939598" stroke-linecap="round" stroke-linejoin="round" stroke-miterlimit="50" stroke-width="2" xlink:href="#wtiwn"/></g><g><use fill="#fff" fill-opacity="0" stroke="#939598" stroke-linecap="round" stroke-linejoin="round" stroke-miterlimit="50" stroke-width="2" xlink:href="#wtiwo"/></g><g><use fill="#fff" fill-opacity="0" stroke="#939598" stroke-linecap="round" stroke-linejoin="round" stroke-miterlimit="50" stroke-width="2" xlink:href="#wtiwp"/></g><g><use fill="#fff" fill-opacity="0" stroke="#939598" stroke-miterlimit="50" stroke-width="2" xlink:href="#wtiwq"/></g><g><use fill="#fff" fill-opacity="0" stroke="#f26722" stroke-linecap="round" stroke-miterlimit="50" stroke-width="2" xlink:href="#wtiwr"/></g><g><use fill="#fff" fill-opacity="0" stroke="#939598" stroke-linecap="round" stroke-linejoin="round" stroke-miterlimit="50" stroke-width="2" xlink:href="#wtiws"/></g><g><use fill="#fff" fill-opacity="0" stroke="#f26722" stroke-linecap="round" stroke-linejoin="round" stroke-miterlimit="50" stroke-width="2" xlink:href="#wtiwt"/></g></g></g></svg>