<svg xmlns="http://www.w3.org/2000/svg" xmlns:xlink="http://www.w3.org/1999/xlink" width="128" height="80" viewBox="0 0 128 80"><defs><path id="ltn9a" d="M676.18 122.58h-4.86v-15.77h-5.25v15.77h-4.84v-15.77H656v20.64h25.43V106.8h-5.25v15.77z"/><path id="ltn9b" d="M700.4 115.77l-7.6-9.02h-2.32v20.7h5.26v-9.62l4.13 5.17h1.04l4.13-5.17v9.61h5.26v-20.69h-2.29l-7.6 9.02z"/><path id="ltn9c" d="M724.64 119.17h7.26v-4.73h-7.26v-2.9h7.76v-4.73h-13.05v20.64h13.28v-4.87h-8v-3.41z"/><path id="ltn9d" d="M742.23 121.1c-.21 1.83-.53 2.23-1.76 2.23-.24 0-.49-.02-.73-.05l-.57-.06-.11 4.07.47.06c.82.12 1.64.2 2.47.2 3.56 0 5.03-1.69 5.46-6.21l.9-9.72h4.32v15.83h5.23V106.8h-14.18l-1.5 14.31z"/><path id="ltn9e" d="M775.72 112.93h-3.65v-6.12h-5.14v20.63h8.8a7.15 7.15 0 0 0 7.49-7.3c0-3.59-2.58-7.21-7.49-7.21m1.74 9.09c-.46.44-1.08.69-1.72.67H772.07v-5h3.66a2.34 2.34 0 0 1 2.39 2.46c.03.7-.22 1.36-.7 1.87"/><path id="ltn9f" d="M719.6 49a23.39 23.39 0 1 1 0 46.78 23.39 23.39 0 0 1 0-46.78m19.03 23.4a19.03 19.03 0 0 0-16.81-18.88v17.6l15.22 8.82a18.9 18.9 0 0 0 1.6-7.54m-21.2-18.88a19 19 0 0 0-15.25 26.42l15.25-8.82v-17.6m2.16 37.87c6.02.01 11.69-2.83 15.27-7.67l-15.27-8.8-15.25 8.8a18.99 18.99 0 0 0 15.25 7.67"/><path id="ltn9g" d="M731.99 69.43c.3.06-.42 0 1.23-.29 5.37-.77 10.68-1.9 15.9-3.36 3.42-.93 9.08-2.33 7.95-6.37l-.75-2.7a145.93 145.93 0 0 1-22.9 8.14c-2.32.74-3.09 2.7-1.43 4.58"/><path id="ltn9h" d="M732.07 70.67h-.3c-.27-.06-.5-.2-.7-.39-1-.98-1.4-2.42-1.06-3.78a4.34 4.34 0 0 1 3.05-2.82c7.8-2.05 15.42-4.75 22.78-8.06a1.22 1.22 0 0 1 1.67.8l.74 2.68a4.34 4.34 0 0 1-.36 3.44c-1.44 2.54-5.33 3.6-8.17 4.36l-.26.07a125.58 125.58 0 0 1-16.04 3.38l-.69.13c-.2.13-.42.2-.66.2m23.46-12.26a147.48 147.48 0 0 1-21.8 7.6c-.62.13-1.15.55-1.41 1.14-.07.3-.01.61.14.88l.54-.1c5.33-.76 10.6-1.87 15.8-3.33l.25-.07c2.3-.61 5.74-1.54 6.69-3.18.27-.49.32-1.07.14-1.59l-.38-1.34"/><path id="ltn9i" d="M739.05 73.22c3.8-.16 5.7-.3 9.54-.7 3.08-.33 5.29-2.29 4.77-4.28l-.47-2.01c-6.78 1.73-13.7 2.9-20.67 3.47 1.46 2.17 3.12 3.5 6.85 3.52"/><path id="ltn9j" d="M739.05 74.45c-4.27 0-6.22-1.65-7.85-4.07a1.22 1.22 0 0 1 .89-1.89c6.93-.56 13.8-1.71 20.53-3.44a1.22 1.22 0 0 1 1.48.9l.06.27.4 1.74c.25 1.06.01 2.18-.64 3.06a7.32 7.32 0 0 1-5.21 2.72c-3.82.4-5.8.54-9.6.7h-.06m-4.42-3.76c1 .86 2.28 1.3 4.39 1.33 3.77-.16 5.63-.28 9.4-.68a4.97 4.97 0 0 0 3.49-1.7c.25-.3.34-.7.27-1.1l-.2-.79c-5.7 1.4-11.5 2.4-17.35 2.94"/><path id="ltn9k" d="M707.26 69.43c-.3.06.41 0-1.23-.29a123.8 123.8 0 0 1-15.9-3.36c-3.42-.93-9.08-2.33-7.95-6.37l.74-2.7c7.4 3.34 15.06 6.06 22.9 8.14 2.33.74 3.1 2.7 1.44 4.58"/><path id="ltn9l" d="M707.16 70.67c-.23 0-.46-.07-.66-.2l-.68-.12a125.76 125.76 0 0 1-16.05-3.39l-.26-.07c-2.84-.8-6.72-1.8-8.17-4.36a4.34 4.34 0 0 1-.36-3.43l.74-2.7a1.22 1.22 0 0 1 1.49-.86l.19.07a145.06 145.06 0 0 0 22.74 8.07 4.37 4.37 0 0 1 3.13 2.82 3.98 3.98 0 0 1-1.07 3.73c-.18.2-.4.33-.66.39-.11.03-.23.04-.34.05m-23.48-12.25l-.37 1.34c-.19.53-.14 1.1.14 1.6.94 1.66 4.4 2.59 6.68 3.17l.26.08a122.15 122.15 0 0 0 15.79 3.33l.54.1c.15-.27.2-.58.12-.88-.27-.6-.8-1.02-1.44-1.15-7.44-1.96-14.7-4.5-21.74-7.6"/><path id="ltn9m" d="M700.22 73.22c-3.8-.16-5.71-.3-9.54-.7-3.08-.33-5.3-2.29-4.77-4.28l.46-2.01c6.79 1.73 13.7 2.9 20.67 3.47-1.46 2.17-3.11 3.5-6.85 3.52"/><path id="ltn9n" d="M700.21 74.44h-.04c-3.82-.16-5.8-.3-9.6-.7a7.33 7.33 0 0 1-5.22-2.72c-.65-.87-.89-2-.65-3.06l.4-1.72.07-.27a1.22 1.22 0 0 1 1.46-.92c6.74 1.73 13.61 2.87 20.54 3.44a1.22 1.22 0 0 1 .89 1.89c-1.59 2.39-3.59 4.02-7.85 4.06zm-12.94-6.74l-.2.8c-.08.38.02.79.27 1.1a4.98 4.98 0 0 0 3.49 1.69c3.77.39 5.63.52 9.4.68 2.1 0 3.4-.48 4.4-1.33a120.18 120.18 0 0 1-17.36-2.94z"/><path id="ltn9o" d="M708.96 75.59c-.2 3.6 2.55 6.12 7.4 6.12h6.54c4.85 0 7.58-2.52 7.4-6.12-7.11.37-14.23.37-21.34 0"/><path id="ltn9p" d="M722.9 82.9h-6.55c-2.96 0-5.34-.87-6.88-2.5a6.47 6.47 0 0 1-1.73-4.91l.06-1.22 1.22.06c7.06.37 14.14.37 21.21 0l1.22-.06.08 1.25a6.47 6.47 0 0 1-1.74 4.92c-1.53 1.6-3.92 2.48-6.87 2.48m-12.66-6.09c.14.72.48 1.38.98 1.9 1.05 1.11 2.88 1.72 5.12 1.72h6.55c2.24 0 4.06-.61 5.11-1.72.5-.53.84-1.19.98-1.9-6.22.32-12.58.32-18.74 0"/><path id="ltn9q" d="M727.3 68.54c-5.11.21-10.22.21-15.34 0l-1.59 2.78a9.65 9.65 0 0 0-1.39 4.27c7.1.37 14.23.37 21.34 0a9.65 9.65 0 0 0-1.4-4.27l-1.58-2.78z"/><path id="ltn9r" d="M719.6 77.08c-3.58 0-7.2-.1-10.73-.28l-1.19-.06.06-1.22c.14-1.7.69-3.36 1.6-4.82l1.93-3.41h.74c5.06.21 10.19.21 15.24 0h.74l1.95 3.42c.9 1.46 1.45 3.1 1.6 4.82l.05 1.22-1.23.08c-3.53.19-7.15.28-10.73.28m-9.26-2.66c6.12.28 12.4.28 18.54 0a9.73 9.73 0 0 0-1.05-2.52l-1.24-2.13c-4.65.17-9.33.17-13.97 0l-1.23 2.13a9.68 9.68 0 0 0-1.05 2.52"/><path id="ltn9s" d="M727.3 68.54l-1.67-2.9c-3.3-5.7-8.7-5.7-12 0l-1.67 2.9c5.1.22 10.22.22 15.34 0"/><path id="ltn9t" d="M719.6 69.91c-2.56 0-5.16-.05-7.72-.16l-1.98-.08 2.68-4.63c1.81-3.17 4.32-4.91 7.02-4.91 2.7 0 5.23 1.74 7.05 4.9l2.7 4.64-2 .1c-2.57.09-5.16.14-7.75.14zm-5.57-2.52c3.71.12 7.45.12 11.21 0l-.66-1.14c-1.36-2.39-3.12-3.68-4.94-3.68-1.82 0-3.58 1.3-4.95 3.68z"/></defs><g><g transform="translate(-656 -49)"><g><g><use fill="#231f1f" xlink:href="#ltn9a"/></g><g><use fill="#231f1f" xlink:href="#ltn9b"/></g><g><use fill="#231f1f" xlink:href="#ltn9c"/></g><g><use fill="#231f1f" xlink:href="#ltn9d"/></g><g><use fill="#231f1f" xlink:href="#ltn9e"/></g></g><g><g><use fill="#231f1f" xlink:href="#ltn9f"/></g><g><use fill="#fff" xlink:href="#ltn9g"/></g><g><use fill="#231f1f" xlink:href="#ltn9h"/></g><g><use fill="#fff" xlink:href="#ltn9i"/></g><g><use fill="#231f1f" xlink:href="#ltn9j"/></g><g><use fill="#fff" xlink:href="#ltn9k"/></g><g><use fill="#231f1f" xlink:href="#ltn9l"/></g><g><use fill="#fff" xlink:href="#ltn9m"/></g><g><use fill="#231f1f" xlink:href="#ltn9n"/></g><g><use fill="#fff" xlink:href="#ltn9o"/></g><g><use fill="#231f1f" xlink:href="#ltn9p"/></g><g><use fill="#f26722" xlink:href="#ltn9q"/></g><g><use fill="#231f1f" xlink:href="#ltn9r"/></g><g><use fill="#231f1f" xlink:href="#ltn9s"/></g><g><use fill="#231f1f" xlink:href="#ltn9t"/></g></g></g></g></svg>