<svg xmlns="http://www.w3.org/2000/svg" xmlns:xlink="http://www.w3.org/1999/xlink" width="234" height="141" viewBox="0 0 234 141"><defs><path id="iilpa" d="M389.87 4145a70.25 70.25 0 0 1 70.14 70.17 70.16 70.16 0 1 1-140.29 0 70.16 70.16 0 0 1 70.15-70.17m57.07 70.19a57.08 57.08 0 0 0-50.41-56.64v52.82l45.66 26.44a56.73 56.73 0 0 0 4.77-22.62m-63.59-56.64a56.97 56.97 0 0 0-45.74 79.26l45.74-26.44v-52.82m6.5 113.66a56.95 56.95 0 0 0 45.81-23.02l-45.81-26.41-45.75 26.4a56.95 56.95 0 0 0 45.75 23.03"/><path id="iilpb" d="M427.03 4206.29c.9.19-1.24 0 3.7-.86a371.55 371.55 0 0 0 47.7-10.1c10.25-2.76 27.23-6.98 23.85-19.08-.77-2.7-1.51-5.4-2.24-8.11a437.8 437.8 0 0 1-68.7 24.4c-6.98 2.25-9.27 8.1-4.31 13.75"/><path id="iilpc" d="M427.29 4210c-.31.04-.62.04-.93 0-.78-.18-1.5-.59-2.05-1.16-3-2.95-4.23-7.27-3.22-11.36a13.02 13.02 0 0 1 9.15-8.44 436.75 436.75 0 0 0 68.34-24.2 3.65 3.65 0 0 1 5.03 2.4c.67 2.5 1.4 5.2 2.22 8.06a13 13 0 0 1-1.08 10.3c-4.34 7.64-16 10.79-24.51 13.08l-.8.21a376.75 376.75 0 0 1-48.12 10.16c-1.08.17-1.7.29-2.05.39-.6.37-1.28.57-1.98.57m70.38-36.76a442.47 442.47 0 0 1-65.4 22.82 5.92 5.92 0 0 0-4.24 3.4c-.2.9-.04 1.84.43 2.64l1.62-.29a367 367 0 0 0 47.36-10l.8-.2c6.86-1.84 17.21-4.63 20.05-9.55a5.8 5.8 0 0 0 .4-4.77l-1.12-4.03"/><path id="iilpd" d="M448.2 4217.67a388.4 388.4 0 0 0 28.63-2.07c9.23-1.03 15.86-6.9 14.31-12.86-.64-2.65-.86-3.6-1.4-6.04a373.6 373.6 0 0 1-62.02 10.4c4.39 6.52 9.35 10.5 20.56 10.57"/><path id="iilpe" d="M448.2 4221.34c-12.78 0-18.64-4.94-23.53-12.2a3.65 3.65 0 0 1 2.67-5.67 368.55 368.55 0 0 0 61.6-10.3 3.65 3.65 0 0 1 4.42 2.69l.19.79 1.21 5.22c.73 3.2.02 6.55-1.93 9.19a21.96 21.96 0 0 1-15.64 8.16 389.83 389.83 0 0 1-28.82 2.1h-.14m-13.28-11.27c3 2.56 6.87 3.92 13.19 3.99 11.32-.48 16.88-.86 28.24-2.05 4.02-.22 7.79-2.05 10.44-5.08a4 4 0 0 0 .81-3.3 57.06 57.06 0 0 0-.6-2.38 360.22 360.22 0 0 1-52.08 8.82"/><path id="iilpf" d="M352.85 4206.29c-.9.19 1.24 0-3.7-.86a371.39 371.39 0 0 1-47.7-10.1c-10.26-2.76-27.24-6.98-23.85-19.08.81-2.88 1.56-5.58 2.24-8.11a437.8 437.8 0 0 0 68.7 24.4c6.98 2.25 9.3 8.1 4.3 13.75"/><path id="iilpg" d="M352.55 4209.99c-.7 0-1.4-.2-1.98-.57a46.4 46.4 0 0 0-2.06-.39 377.28 377.28 0 0 1-48.13-10.16l-.78-.21c-8.52-2.39-20.18-5.42-24.52-13.08a13 13 0 0 1-1.08-10.3c.82-2.87 1.55-5.56 2.22-8.07a3.65 3.65 0 0 1 4.46-2.6l.57.22a435.17 435.17 0 0 0 68.22 24.19 13.12 13.12 0 0 1 9.4 8.47c.94 4.03-.28 8.27-3.22 11.19-.52.59-1.22 1-1.98 1.16-.33.1-.67.14-1 .15m-70.44-36.74l-1.12 4.03a5.8 5.8 0 0 0 .4 4.77c2.85 4.99 13.2 7.78 20.07 9.54l.78.22a366.45 366.45 0 0 0 47.35 10l1.64.28c.44-.8.57-1.73.36-2.62a6.06 6.06 0 0 0-4.34-3.44 441.16 441.16 0 0 1-65.2-22.78"/><path id="iilph" d="M331.7 4217.67a388.4 388.4 0 0 1-28.62-2.07c-9.23-1.03-15.86-6.9-14.31-12.86.64-2.65.85-3.6 1.4-6.04a374.53 374.53 0 0 0 62.01 10.4c-4.38 6.52-9.34 10.5-20.55 10.57"/><path id="iilpi" d="M331.7 4221.34h-.14c-11.45-.48-17.37-.9-28.8-2.1a21.99 21.99 0 0 1-15.66-8.16 11.29 11.29 0 0 1-1.93-9.18c.54-2.39.78-3.32 1.21-5.16l.2-.83a3.65 3.65 0 0 1 4.38-2.74 369.17 369.17 0 0 0 61.6 10.3 3.65 3.65 0 0 1 2.68 5.68c-4.77 7.16-10.76 12.07-23.54 12.2zm-38.83-20.23l-.6 2.39a4 4 0 0 0 .81 3.29 14.95 14.95 0 0 0 10.47 5.08 386.63 386.63 0 0 0 28.21 2.05c6.32 0 10.21-1.43 13.22-3.98a360.84 360.84 0 0 1-52.11-8.83z"/><path id="iilpj" d="M357.94 4224.76c-.57 10.8 7.65 18.37 22.18 18.37h19.65c14.53 0 22.73-7.56 22.18-18.37a615.57 615.57 0 0 1-64.01 0"/><path id="iilpk" d="M399.77 4246.68h-19.65c-8.88 0-16-2.57-20.63-7.44a19.42 19.42 0 0 1-5.2-14.77l.19-3.65 3.65.2c21.2 1.09 42.43 1.09 63.63 0l3.65-.2.24 3.75a19.42 19.42 0 0 1-5.2 14.76c-4.6 4.78-11.76 7.45-20.63 7.45m-37.97-18.28a11.43 11.43 0 0 0 2.95 5.7c3.15 3.34 8.61 5.16 15.34 5.16h19.65c6.72 0 12.18-1.84 15.33-5.16a11.4 11.4 0 0 0 2.93-5.7c-18.64.96-37.72.96-56.2 0"/><path id="iilpl" d="M412.95 4203.62c-15.33.64-30.66.64-46 0l-4.78 8.33a28.94 28.94 0 0 0-4.17 12.8 615.7 615.7 0 0 0 64.02 0 28.94 28.94 0 0 0-4.18-12.8l-4.77-8.33z"/><path id="iilpm" d="M389.87 4229.24c-10.76 0-21.61-.29-32.2-.84l-3.58-.19.2-3.65a32.45 32.45 0 0 1 4.76-14.46l5.82-10.23h2.22c15.17.64 30.55.64 45.72 0h2.22l5.84 10.26a32.48 32.48 0 0 1 4.77 14.46l.2 3.65-3.7.26a626.3 626.3 0 0 1-32.2.83m-27.79-7.99c18.37.83 37.23.83 55.62 0a29.17 29.17 0 0 0-3.15-7.54l-3.72-6.41c-13.93.52-27.97.52-41.9 0l-3.7 6.39a29.02 29.02 0 0 0-3.15 7.56"/><path id="iilpn" d="M412.96 4203.62l-5.01-8.68c-9.9-17.16-26.1-17.16-36 0l-5 8.68c15.33.64 30.66.64 46 0"/><path id="iilpo" d="M389.87 4207.74c-7.68 0-15.48-.16-23.16-.47l-5.94-.24 8.04-13.91c5.44-9.5 12.95-14.72 21.06-14.72 8.1 0 15.7 5.22 21.15 14.7l8.11 13.93-6.03.26c-7.68.29-15.46.45-23.23.45zm-16.7-7.56a539 539 0 0 0 33.63 0l-1.98-3.43c-4.1-7.16-9.37-11.02-14.83-11.02-5.46 0-10.74 3.9-14.84 11.02z"/></defs><g><g transform="translate(-273 -4145)"><g><use fill="#231f1f" xlink:href="#iilpa"/></g><g><use fill="#fff" xlink:href="#iilpb"/></g><g><use fill="#231f1f" xlink:href="#iilpc"/></g><g><use fill="#fff" xlink:href="#iilpd"/></g><g><use fill="#231f1f" xlink:href="#iilpe"/></g><g><use fill="#fff" xlink:href="#iilpf"/></g><g><use fill="#231f1f" xlink:href="#iilpg"/></g><g><use fill="#fff" xlink:href="#iilph"/></g><g><use fill="#231f1f" xlink:href="#iilpi"/></g><g><use fill="#fff" xlink:href="#iilpj"/></g><g><use fill="#231f1f" xlink:href="#iilpk"/></g><g><use fill="#f26722" xlink:href="#iilpl"/></g><g><use fill="#231f1f" xlink:href="#iilpm"/></g><g><use fill="#231f1f" xlink:href="#iilpn"/></g><g><use fill="#231f1f" xlink:href="#iilpo"/></g></g></g></svg>