<svg xmlns="http://www.w3.org/2000/svg" xmlns:xlink="http://www.w3.org/1999/xlink" width="104" height="18" viewBox="0 0 104 18"><defs><path id="8zuca" d="M124.5 36.35h-3.97v-12.9h-4.3v12.9h-3.95v-12.9H108v16.88h20.8V23.45h-4.3v12.9z"/><path id="8zucb" d="M144.33 30.78l-6.23-7.38h-1.89v16.93h4.3v-7.87l3.38 4.23h.85l3.39-4.23v7.87h4.3V23.4h-1.88l-6.22 7.38z"/><path id="8zucc" d="M164.16 33.56h5.94V29.7h-5.94V27.3h6.35v-3.86h-10.68v16.88h10.86v-3.98h-6.53v-2.79z"/><path id="8zucd" d="M178.56 35.14c-.18 1.5-.44 1.82-1.45 1.82l-.6-.03-.46-.06-.09 3.33.38.06c.67.1 1.35.15 2.03.16 2.9 0 4.11-1.38 4.46-5.08l.74-7.95h3.53v12.94h4.28V23.45h-11.6l-1.22 11.71z"/><path id="8zuce" d="M205.95 28.46h-2.98v-5.01h-4.21v16.88h7.2a5.85 5.85 0 0 0 6.13-5.97c0-2.94-2.1-5.9-6.13-5.9m1.43 7.43c-.38.37-.89.57-1.42.55h-3v-4.09h3a1.91 1.91 0 0 1 1.94 2.02 2.1 2.1 0 0 1-.56 1.52"/></defs><g><g transform="translate(-108 -23)"><g><use fill="#231f1f" xlink:href="#8zuca"/></g><g><use fill="#231f1f" xlink:href="#8zucb"/></g><g><use fill="#231f1f" xlink:href="#8zucc"/></g><g><use fill="#231f1f" xlink:href="#8zucd"/></g><g><use fill="#231f1f" xlink:href="#8zuce"/></g></g></g></svg>