<svg xmlns="http://www.w3.org/2000/svg" xmlns:xlink="http://www.w3.org/1999/xlink" width="385" height="206" viewBox="0 0 383 206"><defs><path id="oewea" d="M760 4974h375"/><path id="oeweb" d="M1024.53 4882.18h114.11v74.55H756.36v-84h114.1"/><path id="oewec" d="M883.36 4956.73v-114.91h127.9v114.9"/><path id="oewed" d="M947.95 4770a23.39 23.39 0 1 1 0 46.78 23.39 23.39 0 0 1 0-46.78m19.03 23.4a19.03 19.03 0 0 0-16.81-18.88v17.6l15.22 8.82a18.9 18.9 0 0 0 1.6-7.54m-21.2-18.88a19 19 0 0 0-15.25 26.42l15.25-8.82v-17.6m2.16 37.87c6.02.01 11.69-2.83 15.27-7.67l-15.27-8.8-15.25 8.8a18.99 18.99 0 0 0 15.25 7.67"/><path id="oewee" d="M960.35 4790.43c.3.06-.42 0 1.23-.29 5.37-.77 10.68-1.9 15.9-3.36 3.42-.93 9.08-2.33 7.95-6.37l-.75-2.7a145.93 145.93 0 0 1-22.9 8.14c-2.32.74-3.09 2.7-1.43 4.58"/><path id="oewef" d="M960.43 4791.67h-.3c-.27-.06-.5-.2-.7-.39-1-.98-1.4-2.42-1.06-3.78a4.34 4.34 0 0 1 3.05-2.82c7.8-2.05 15.42-4.75 22.78-8.06a1.22 1.22 0 0 1 1.67.8l.74 2.68a4.34 4.34 0 0 1-.36 3.44c-1.44 2.54-5.33 3.6-8.17 4.36l-.26.07a125.58 125.58 0 0 1-16.04 3.38l-.69.13c-.2.13-.42.2-.66.2m23.46-12.26a147.48 147.48 0 0 1-21.8 7.6c-.62.13-1.15.55-1.41 1.14-.07.3-.01.61.14.88l.54-.1c5.33-.76 10.6-1.87 15.8-3.33l.25-.07c2.3-.61 5.74-1.54 6.69-3.18.27-.49.32-1.07.14-1.59l-.38-1.34"/><path id="oeweg" d="M967.4 4794.22c3.8-.16 5.7-.3 9.54-.7 3.08-.33 5.29-2.29 4.77-4.28l-.47-2.01c-6.78 1.73-13.7 2.9-20.67 3.47 1.46 2.17 3.12 3.5 6.85 3.52"/><path id="oeweh" d="M967.4 4795.45c-4.26 0-6.21-1.65-7.84-4.07a1.22 1.22 0 0 1 .89-1.89c6.93-.56 13.8-1.71 20.53-3.44a1.22 1.22 0 0 1 1.48.9l.06.27.4 1.74c.25 1.06.01 2.18-.64 3.06a7.32 7.32 0 0 1-5.21 2.72c-3.82.4-5.8.54-9.6.7h-.06m-4.42-3.76c1 .86 2.28 1.3 4.39 1.33 3.77-.16 5.63-.28 9.4-.68a4.97 4.97 0 0 0 3.49-1.7c.25-.3.34-.7.27-1.1l-.2-.79c-5.7 1.4-11.5 2.4-17.35 2.94"/><path id="oewei" d="M935.62 4790.43c-.3.06.41 0-1.23-.29a123.8 123.8 0 0 1-15.9-3.36c-3.42-.93-9.08-2.33-7.95-6.37l.74-2.7c7.4 3.34 15.06 6.06 22.9 8.14 2.33.74 3.1 2.7 1.44 4.58"/><path id="oewej" d="M935.51 4791.67c-.23 0-.46-.07-.66-.2l-.68-.12a125.76 125.76 0 0 1-16.05-3.39l-.26-.07c-2.84-.8-6.72-1.8-8.17-4.36a4.34 4.34 0 0 1-.36-3.43l.74-2.7a1.22 1.22 0 0 1 1.49-.86l.19.07a145.06 145.06 0 0 0 22.74 8.07 4.37 4.37 0 0 1 3.13 2.82 3.98 3.98 0 0 1-1.07 3.73c-.18.2-.4.33-.66.39-.11.03-.23.04-.34.05m-23.48-12.25l-.37 1.34c-.19.53-.14 1.1.14 1.6.94 1.66 4.4 2.59 6.68 3.17l.26.08a122.15 122.15 0 0 0 15.79 3.33l.54.1c.15-.27.2-.58.12-.88-.27-.6-.8-1.02-1.44-1.15-7.44-1.96-14.7-4.5-21.74-7.6"/><path id="oewek" d="M928.57 4794.22c-3.8-.16-5.71-.3-9.54-.7-3.08-.33-5.3-2.29-4.77-4.28l.46-2.01c6.79 1.73 13.7 2.9 20.67 3.47-1.46 2.17-3.11 3.5-6.85 3.52"/><path id="oewel" d="M928.56 4795.44h-.04c-3.82-.16-5.8-.3-9.6-.7a7.33 7.33 0 0 1-5.22-2.72c-.65-.87-.89-2-.65-3.06l.4-1.72.07-.27a1.22 1.22 0 0 1 1.46-.92c6.74 1.73 13.61 2.87 20.54 3.44a1.22 1.22 0 0 1 .89 1.89c-1.59 2.39-3.59 4.02-7.85 4.06zm-12.94-6.74l-.2.8c-.08.38.02.79.27 1.1a4.98 4.98 0 0 0 3.49 1.69c3.77.39 5.63.52 9.4.68 2.1 0 3.4-.48 4.4-1.33a120.18 120.18 0 0 1-17.36-2.94z"/><path id="oewem" d="M937.3 4796.59c-.18 3.6 2.56 6.12 7.4 6.12h6.55c4.85 0 7.58-2.52 7.4-6.12-7.11.37-14.23.37-21.34 0"/><path id="oewen" d="M951.26 4803.9h-6.55c-2.96 0-5.34-.87-6.88-2.5a6.47 6.47 0 0 1-1.73-4.91l.06-1.22 1.22.06c7.06.37 14.14.37 21.21 0l1.22-.06.08 1.25a6.47 6.47 0 0 1-1.74 4.92c-1.53 1.6-3.92 2.48-6.87 2.48m-12.66-6.09c.14.72.48 1.38.98 1.9 1.05 1.11 2.88 1.72 5.12 1.72h6.55c2.24 0 4.06-.61 5.11-1.72.5-.53.84-1.19.98-1.9-6.22.32-12.58.32-18.74 0"/><path id="oeweo" d="M955.65 4789.54c-5.11.21-10.22.21-15.34 0l-1.59 2.78a9.65 9.65 0 0 0-1.39 4.27c7.1.37 14.23.37 21.34 0a9.65 9.65 0 0 0-1.4-4.27l-1.58-2.78z"/><path id="oewep" d="M947.96 4798.08c-3.59 0-7.2-.1-10.74-.28l-1.19-.06.06-1.22c.14-1.7.69-3.36 1.6-4.82l1.93-3.41h.74c5.06.21 10.19.21 15.24 0h.74l1.95 3.42c.9 1.46 1.45 3.1 1.6 4.82l.05 1.22-1.23.08c-3.53.19-7.15.28-10.73.28m-9.26-2.66c6.12.28 12.4.28 18.54 0a9.73 9.73 0 0 0-1.05-2.52l-1.24-2.13c-4.65.17-9.33.17-13.97 0l-1.23 2.13a9.68 9.68 0 0 0-1.05 2.52"/><path id="oeweq" d="M955.66 4789.54l-1.67-2.9c-3.3-5.7-8.7-5.7-12 0l-1.67 2.9c5.1.22 10.22.22 15.34 0"/><path id="oewer" d="M947.96 4790.91c-2.56 0-5.16-.05-7.72-.16l-1.98-.08 2.68-4.63c1.81-3.17 4.32-4.91 7.02-4.91 2.7 0 5.23 1.74 7.05 4.9l2.7 4.64-2 .1c-2.57.09-5.16.14-7.75.14zm-5.57-2.52c3.71.12 7.45.12 11.21 0l-.66-1.14c-1.36-2.39-3.12-3.68-4.94-3.68-1.82 0-3.58 1.3-4.95 3.68z"/><path id="oewes" d="M950.98 4932h-3.44v-37.44c0-3.4.14-6.93.42-10.59-.35.36-.72.7-1.1 1.02-.37.33-3.99 3.18-10.86 8.55l-2-2.5 13.96-10.44h3.02z"/><path id="oewet" d="M828.72 4932h-18.77v-2.79l7.52-7.56c2.3-2.31 3.8-3.97 4.53-4.96.73-.99 1.28-1.95 1.64-2.89.37-.94.55-1.94.55-3.03a4.8 4.8 0 0 0-1.39-3.62 5.31 5.31 0 0 0-3.85-1.34c-1.18 0-2.3.2-3.37.59-1.06.39-2.24 1.1-3.54 2.13l-1.72-2.2a13.16 13.16 0 0 1 8.6-3.29c2.68 0 4.78.69 6.3 2.06a7.09 7.09 0 0 1 2.29 5.54c0 1.8-.5 3.6-1.52 5.37s-2.92 4-5.7 6.72l-6.26 6.11v.16h14.69z"/><path id="oeweu" d="M1086.65 4910.17c0 1.82-.5 3.31-1.53 4.47a7.68 7.68 0 0 1-4.35 2.33v.15c2.3.29 4 1.02 5.1 2.19a6.44 6.44 0 0 1 1.66 4.6c0 2.73-.94 4.82-2.83 6.29-1.89 1.46-4.57 2.2-8.05 2.2-1.5 0-2.9-.12-4.15-.35a14.2 14.2 0 0 1-3.66-1.2v-3.08a17.8 17.8 0 0 0 3.96 1.4c1.4.31 2.72.47 3.97.47 4.93 0 7.4-1.93 7.4-5.8 0-3.46-2.72-5.2-8.16-5.2h-2.81v-2.79h2.85c2.22 0 3.99-.49 5.29-1.47a4.84 4.84 0 0 0 1.95-4.1c0-1.39-.48-2.48-1.43-3.28a5.92 5.92 0 0 0-3.9-1.19c-1.25 0-2.43.17-3.53.51-1.11.34-2.37.96-3.8 1.88l-1.63-2.2a13.68 13.68 0 0 1 4.05-2.17c1.53-.53 3.14-.79 4.83-.79 2.78 0 4.93.63 6.47 1.9a6.41 6.41 0 0 1 2.3 5.23z"/></defs><g><g transform="translate(-756 -4770)"><g><use fill="#fff" fill-opacity="0" stroke="#f26722" stroke-linejoin="round" stroke-miterlimit="50" stroke-width="2" xlink:href="#oewea"/></g><g><use fill="#fff" fill-opacity="0" stroke="#939598" stroke-miterlimit="50" stroke-width="2" xlink:href="#oeweb"/></g><g><use fill="#fff" fill-opacity="0" stroke="#939598" stroke-miterlimit="50" stroke-width="2" xlink:href="#oewec"/></g><g><g><use fill="#231f1f" xlink:href="#oewed"/></g><g><use fill="#fff" xlink:href="#oewee"/></g><g><use fill="#231f1f" xlink:href="#oewef"/></g><g><use fill="#fff" xlink:href="#oeweg"/></g><g><use fill="#231f1f" xlink:href="#oeweh"/></g><g><use fill="#fff" xlink:href="#oewei"/></g><g><use fill="#231f1f" xlink:href="#oewej"/></g><g><use fill="#fff" xlink:href="#oewek"/></g><g><use fill="#231f1f" xlink:href="#oewel"/></g><g><use fill="#fff" xlink:href="#oewem"/></g><g><use fill="#231f1f" xlink:href="#oewen"/></g><g><use fill="#f26722" xlink:href="#oeweo"/></g><g><use fill="#231f1f" xlink:href="#oewep"/></g><g><use fill="#231f1f" xlink:href="#oeweq"/></g><g><use fill="#231f1f" xlink:href="#oewer"/></g></g><g><use fill="#f26722" xlink:href="#oewes"/></g><g><use fill="#f26722" xlink:href="#oewet"/></g><g><use fill="#f26722" xlink:href="#oeweu"/></g></g></g></svg>